<svg xmlns="http://www.w3.org/2000/svg" width="30" height="44" viewBox="0 0 30 44">
  <metadata><?xpacket begin="﻿" id="W5M0MpCehiHzreSzNTczkc9d"?>
<x:xmpmeta xmlns:x="adobe:ns:meta/" x:xmptk="Adobe XMP Core 5.6-c138 79.159824, 2016/09/14-01:09:01        ">
   <rdf:RDF xmlns:rdf="http://www.w3.org/1999/02/22-rdf-syntax-ns#">
      <rdf:Description rdf:about=""/>
   </rdf:RDF>
</x:xmpmeta>
                                                                                                    
                                                                                                    
                                                                                                    
                                                                                                    
                                                                                                    
                                                                                                    
                                                                                                    
                                                                                                    
                                                                                                    
                                                                                                    
                                                                                                    
                                                                                                    
                                                                                                    
                                                                                                    
                                                                                                    
                                                                                                    
                                                                                                    
                                                                                                    
                                                                                                    
                                                                                                    
                           
<?xpacket end="w"?></metadata>
<defs>
    <style>
      .cls-1 {
        fill: #fff;
        fill-rule: evenodd;
      }
    </style>
  </defs>
  <path id="_1" data-name="1" class="cls-1" d="M739.436,21.995A1.467,1.467,0,1,1,738,23.462,1.452,1.452,0,0,1,739.436,21.995Zm8.636,0a1.467,1.467,0,1,1-1.426,1.467A1.447,1.447,0,0,1,748.072,21.995Zm8.614,0a1.467,1.467,0,1,1-1.437,1.467A1.453,1.453,0,0,1,756.686,21.995Zm8.625,0a1.467,1.467,0,1,1-1.437,1.467A1.453,1.453,0,0,1,765.311,21.995Zm8.614,0a1.467,1.467,0,1,1-1.426,1.467A1.447,1.447,0,0,1,773.925,21.995Zm8.637,0a1.467,1.467,0,1,1-1.438,1.467A1.452,1.452,0,0,1,782.562,21.995ZM739.436,30.2A1.467,1.467,0,1,1,738,31.667,1.452,1.452,0,0,1,739.436,30.2Zm8.636,0a1.467,1.467,0,1,1-1.426,1.467A1.447,1.447,0,0,1,748.072,30.2Zm8.614,0a1.467,1.467,0,1,1-1.437,1.467A1.453,1.453,0,0,1,756.686,30.2Zm8.625,0a1.467,1.467,0,1,1-1.437,1.467A1.453,1.453,0,0,1,765.311,30.2Zm8.614,0a1.467,1.467,0,1,1-1.426,1.467A1.447,1.447,0,0,1,773.925,30.2Zm8.637,0a1.467,1.467,0,1,1-1.438,1.467A1.452,1.452,0,0,1,782.562,30.2Zm-43.126,8.228A1.456,1.456,0,1,1,738,39.884,1.446,1.446,0,0,1,739.436,38.428Zm8.636,0a1.456,1.456,0,1,1-1.426,1.455A1.441,1.441,0,0,1,748.072,38.428Zm8.614,0a1.456,1.456,0,1,1-1.437,1.455A1.447,1.447,0,0,1,756.686,38.428Zm8.625,0a1.456,1.456,0,1,1-1.437,1.455A1.447,1.447,0,0,1,765.311,38.428Zm8.614,0a1.456,1.456,0,1,1-1.426,1.455A1.441,1.441,0,0,1,773.925,38.428Zm8.637,0a1.456,1.456,0,1,1-1.438,1.455A1.446,1.446,0,0,1,782.562,38.428Zm-43.126,8.228A1.455,1.455,0,1,1,738,48.112,1.446,1.446,0,0,1,739.436,46.656Zm8.636,0a1.456,1.456,0,1,1-1.426,1.455A1.441,1.441,0,0,1,748.072,46.656Zm8.614,0a1.455,1.455,0,1,1-1.437,1.455A1.447,1.447,0,0,1,756.686,46.656Zm8.625,0a1.455,1.455,0,1,1-1.437,1.455A1.447,1.447,0,0,1,765.311,46.656Zm8.614,0a1.456,1.456,0,1,1-1.426,1.455A1.441,1.441,0,0,1,773.925,46.656Zm8.637,0a1.455,1.455,0,1,1-1.438,1.455A1.446,1.446,0,0,1,782.562,46.656Zm-43.126,8.205A1.456,1.456,0,1,1,738,56.317,1.446,1.446,0,0,1,739.436,54.861Zm8.636,0a1.456,1.456,0,1,1-1.426,1.455A1.441,1.441,0,0,1,748.072,54.861Zm8.614,0a1.456,1.456,0,1,1-1.437,1.455A1.447,1.447,0,0,1,756.686,54.861Zm8.625,0a1.456,1.456,0,1,1-1.437,1.455A1.447,1.447,0,0,1,765.311,54.861Zm8.614,0a1.456,1.456,0,1,1-1.426,1.455A1.441,1.441,0,0,1,773.925,54.861Zm8.637,0a1.456,1.456,0,1,1-1.438,1.455A1.446,1.446,0,0,1,782.562,54.861ZM739.436,63.09A1.456,1.456,0,1,1,738,64.545,1.446,1.446,0,0,1,739.436,63.09Zm8.636,0a1.456,1.456,0,1,1-1.426,1.455A1.441,1.441,0,0,1,748.072,63.09Zm8.614,0a1.456,1.456,0,1,1-1.437,1.455A1.447,1.447,0,0,1,756.686,63.09Zm8.625,0a1.456,1.456,0,1,1-1.437,1.455A1.447,1.447,0,0,1,765.311,63.09Zm8.614,0a1.456,1.456,0,1,1-1.426,1.455A1.441,1.441,0,0,1,773.925,63.09Zm8.637,0a1.456,1.456,0,1,1-1.438,1.455A1.446,1.446,0,0,1,782.562,63.09Z" transform="translate(-738 -22)"/>
</svg>
