<svg xmlns="http://www.w3.org/2000/svg" width="46" height="44" viewBox="0 0 46 44">
  <metadata><?xpacket begin="﻿" id="W5M0MpCehiHzreSzNTczkc9d"?>
<x:xmpmeta xmlns:x="adobe:ns:meta/" x:xmptk="Adobe XMP Core 5.6-c138 79.159824, 2016/09/14-01:09:01        ">
   <rdf:RDF xmlns:rdf="http://www.w3.org/1999/02/22-rdf-syntax-ns#">
      <rdf:Description rdf:about=""/>
   </rdf:RDF>
</x:xmpmeta>
                                                                                                    
                                                                                                    
                                                                                                    
                                                                                                    
                                                                                                    
                                                                                                    
                                                                                                    
                                                                                                    
                                                                                                    
                                                                                                    
                                                                                                    
                                                                                                    
                                                                                                    
                                                                                                    
                                                                                                    
                                                                                                    
                                                                                                    
                                                                                                    
                                                                                                    
                                                                                                    
                           
<?xpacket end="w"?></metadata>
<defs>
    <style>
      .cls-1 {
        fill: #fff;
        fill-rule: evenodd;
      }
    </style>
  </defs>
  <path id="_1" data-name="1" class="cls-1" d="M975.436,21.995A1.467,1.467,0,1,1,974,23.462,1.452,1.452,0,0,1,975.436,21.995Zm8.636,0a1.467,1.467,0,1,1-1.426,1.467A1.447,1.447,0,0,1,984.072,21.995Zm8.614,0a1.467,1.467,0,1,1-1.437,1.467A1.453,1.453,0,0,1,992.686,21.995Zm8.624,0a1.467,1.467,0,1,1-1.436,1.467A1.451,1.451,0,0,1,1001.31,21.995Zm8.62,0a1.467,1.467,0,1,1-1.43,1.467A1.447,1.447,0,0,1,1009.93,21.995Zm8.63,0a1.467,1.467,0,1,1-1.44,1.467A1.451,1.451,0,0,1,1018.56,21.995ZM975.436,30.2A1.467,1.467,0,1,1,974,31.667,1.452,1.452,0,0,1,975.436,30.2Zm8.636,0a1.467,1.467,0,1,1-1.426,1.467A1.447,1.447,0,0,1,984.072,30.2Zm8.614,0a1.467,1.467,0,1,1-1.437,1.467A1.453,1.453,0,0,1,992.686,30.2Zm8.624,0a1.467,1.467,0,1,1-1.436,1.467A1.451,1.451,0,0,1,1001.31,30.2Zm8.62,0a1.467,1.467,0,1,1-1.43,1.467A1.447,1.447,0,0,1,1009.93,30.2Zm8.63,0a1.467,1.467,0,1,1-1.44,1.467A1.451,1.451,0,0,1,1018.56,30.2Zm-43.124,8.228A1.456,1.456,0,1,1,974,39.884,1.446,1.446,0,0,1,975.436,38.428Zm8.636,0a1.456,1.456,0,1,1-1.426,1.455A1.441,1.441,0,0,1,984.072,38.428Zm8.614,0a1.456,1.456,0,1,1-1.437,1.455A1.447,1.447,0,0,1,992.686,38.428Zm8.624,0a1.456,1.456,0,1,1-1.436,1.455A1.445,1.445,0,0,1,1001.31,38.428Zm8.62,0a1.456,1.456,0,1,1-1.43,1.455A1.441,1.441,0,0,1,1009.93,38.428Zm8.63,0a1.455,1.455,0,1,1-1.44,1.455A1.445,1.445,0,0,1,1018.56,38.428Zm-43.124,8.228A1.455,1.455,0,1,1,974,48.112,1.446,1.446,0,0,1,975.436,46.656Zm8.636,0a1.456,1.456,0,1,1-1.426,1.455A1.441,1.441,0,0,1,984.072,46.656Zm8.614,0a1.455,1.455,0,1,1-1.437,1.455A1.447,1.447,0,0,1,992.686,46.656Zm8.624,0a1.455,1.455,0,1,1-1.436,1.455A1.445,1.445,0,0,1,1001.31,46.656Zm8.62,0a1.456,1.456,0,1,1-1.43,1.455A1.441,1.441,0,0,1,1009.93,46.656Zm8.63,0a1.455,1.455,0,1,1-1.44,1.455A1.445,1.445,0,0,1,1018.56,46.656Zm-43.124,8.205A1.456,1.456,0,1,1,974,56.317,1.446,1.446,0,0,1,975.436,54.861Zm8.636,0a1.456,1.456,0,1,1-1.426,1.455A1.441,1.441,0,0,1,984.072,54.861Zm8.614,0a1.456,1.456,0,1,1-1.437,1.455A1.447,1.447,0,0,1,992.686,54.861Zm8.624,0a1.456,1.456,0,1,1-1.436,1.455A1.445,1.445,0,0,1,1001.31,54.861Zm8.62,0a1.456,1.456,0,1,1-1.43,1.455A1.441,1.441,0,0,1,1009.93,54.861Zm8.63,0a1.455,1.455,0,1,1-1.44,1.455A1.445,1.445,0,0,1,1018.56,54.861ZM975.436,63.09A1.456,1.456,0,1,1,974,64.545,1.446,1.446,0,0,1,975.436,63.09Zm8.636,0a1.456,1.456,0,1,1-1.426,1.455A1.441,1.441,0,0,1,984.072,63.09Zm8.614,0a1.456,1.456,0,1,1-1.437,1.455A1.447,1.447,0,0,1,992.686,63.09Zm8.624,0a1.456,1.456,0,1,1-1.436,1.455A1.445,1.445,0,0,1,1001.31,63.09Zm8.62,0a1.456,1.456,0,1,1-1.43,1.455A1.441,1.441,0,0,1,1009.93,63.09Zm8.63,0a1.455,1.455,0,1,1-1.44,1.455A1.445,1.445,0,0,1,1018.56,63.09Z" transform="translate(-974 -22)"/>
</svg>
