<svg xmlns="http://www.w3.org/2000/svg" width="18" height="17" viewBox="0 0 18 17">
  <metadata><?xpacket begin="﻿" id="W5M0MpCehiHzreSzNTczkc9d"?>
<x:xmpmeta xmlns:x="adobe:ns:meta/" x:xmptk="Adobe XMP Core 5.6-c138 79.159824, 2016/09/14-01:09:01        ">
   <rdf:RDF xmlns:rdf="http://www.w3.org/1999/02/22-rdf-syntax-ns#">
      <rdf:Description rdf:about=""/>
   </rdf:RDF>
</x:xmpmeta>
                                                                                                    
                                                                                                    
                                                                                                    
                                                                                                    
                                                                                                    
                                                                                                    
                                                                                                    
                                                                                                    
                                                                                                    
                                                                                                    
                                                                                                    
                                                                                                    
                                                                                                    
                                                                                                    
                                                                                                    
                                                                                                    
                                                                                                    
                                                                                                    
                                                                                                    
                                                                                                    
                           
<?xpacket end="w"?></metadata>
<defs>
    <style>
      .cls-1 {
        fill: #fff;
        fill-rule: evenodd;
      }
    </style>
  </defs>
  <path id="_1_" data-name="1 " class="cls-1" d="M343.145-18.015a1.162,1.162,0,0,1,1.157,1.167,1.162,1.162,0,0,1-1.157,1.167,1.162,1.162,0,0,1-1.156-1.167A1.162,1.162,0,0,1,343.145-18.015Zm6.949,0a1.157,1.157,0,0,1,1.147,1.167,1.157,1.157,0,0,1-1.147,1.167,1.158,1.158,0,0,1-1.148-1.167A1.158,1.158,0,0,1,350.094-18.015Zm6.93,0a1.162,1.162,0,0,1,1.157,1.167,1.162,1.162,0,0,1-1.157,1.167,1.162,1.162,0,0,1-1.156-1.167A1.162,1.162,0,0,1,357.024-18.015Zm6.94,0a1.161,1.161,0,0,1,1.156,1.167,1.161,1.161,0,0,1-1.156,1.167,1.162,1.162,0,0,1-1.157-1.167A1.162,1.162,0,0,1,363.964-18.015Zm6.93,0a1.158,1.158,0,0,1,1.148,1.167,1.158,1.158,0,0,1-1.148,1.167,1.157,1.157,0,0,1-1.147-1.167A1.157,1.157,0,0,1,370.894-18.015Zm6.949,0A1.162,1.162,0,0,1,379-16.848a1.162,1.162,0,0,1-1.157,1.167,1.162,1.162,0,0,1-1.157-1.167A1.162,1.162,0,0,1,377.843-18.015Zm-34.7,6.528A1.162,1.162,0,0,1,344.3-10.32a1.162,1.162,0,0,1-1.157,1.167,1.162,1.162,0,0,1-1.156-1.167A1.162,1.162,0,0,1,343.145-11.487Zm6.949,0a1.157,1.157,0,0,1,1.147,1.167,1.157,1.157,0,0,1-1.147,1.167,1.158,1.158,0,0,1-1.148-1.167A1.158,1.158,0,0,1,350.094-11.487Zm6.93,0a1.162,1.162,0,0,1,1.157,1.167,1.162,1.162,0,0,1-1.157,1.167,1.162,1.162,0,0,1-1.156-1.167A1.162,1.162,0,0,1,357.024-11.487Zm6.94,0a1.161,1.161,0,0,1,1.156,1.167,1.161,1.161,0,0,1-1.156,1.167,1.162,1.162,0,0,1-1.157-1.167A1.162,1.162,0,0,1,363.964-11.487Zm6.93,0a1.158,1.158,0,0,1,1.148,1.167,1.158,1.158,0,0,1-1.148,1.167,1.158,1.158,0,0,1-1.147-1.167A1.158,1.158,0,0,1,370.894-11.487Zm6.949,0A1.162,1.162,0,0,1,379-10.32a1.162,1.162,0,0,1-1.157,1.167,1.162,1.162,0,0,1-1.157-1.167A1.162,1.162,0,0,1,377.843-11.487Zm-34.7,6.547A1.157,1.157,0,0,1,344.3-3.782a1.157,1.157,0,0,1-1.157,1.158,1.157,1.157,0,0,1-1.156-1.158A1.157,1.157,0,0,1,343.145-4.94Zm6.949,0a1.152,1.152,0,0,1,1.147,1.158,1.152,1.152,0,0,1-1.147,1.158,1.153,1.153,0,0,1-1.148-1.158A1.153,1.153,0,0,1,350.094-4.94Zm6.93,0a1.157,1.157,0,0,1,1.157,1.158,1.157,1.157,0,0,1-1.157,1.158,1.157,1.157,0,0,1-1.156-1.158A1.157,1.157,0,0,1,357.024-4.94Zm6.94,0a1.157,1.157,0,0,1,1.156,1.158,1.157,1.157,0,0,1-1.156,1.158,1.157,1.157,0,0,1-1.157-1.158A1.157,1.157,0,0,1,363.964-4.94Zm6.93,0a1.153,1.153,0,0,1,1.148,1.158,1.153,1.153,0,0,1-1.148,1.158,1.153,1.153,0,0,1-1.147-1.158A1.153,1.153,0,0,1,370.894-4.94Zm6.949,0A1.157,1.157,0,0,1,379-3.782a1.157,1.157,0,0,1-1.157,1.158,1.157,1.157,0,0,1-1.157-1.158A1.157,1.157,0,0,1,377.843-4.94Zm-34.7,6.547a1.158,1.158,0,1,1-1.156,1.158A1.157,1.157,0,0,1,343.145,1.607Zm6.949,0a1.158,1.158,0,1,1-1.148,1.158A1.152,1.152,0,0,1,350.094,1.607Zm6.93,0a1.158,1.158,0,1,1-1.156,1.158A1.157,1.157,0,0,1,357.024,1.607Zm6.94,0a1.158,1.158,0,1,1-1.157,1.158A1.157,1.157,0,0,1,363.964,1.607Zm6.93,0a1.158,1.158,0,1,1-1.147,1.158A1.153,1.153,0,0,1,370.894,1.607Zm6.949,0a1.158,1.158,0,1,1-1.157,1.158A1.157,1.157,0,0,1,377.843,1.607Zm-34.7,6.529a1.158,1.158,0,1,1-1.156,1.158A1.157,1.157,0,0,1,343.145,8.135Zm6.949,0a1.158,1.158,0,1,1-1.148,1.158A1.152,1.152,0,0,1,350.094,8.135Zm6.93,0a1.158,1.158,0,1,1-1.156,1.158A1.157,1.157,0,0,1,357.024,8.135Zm6.94,0a1.158,1.158,0,1,1-1.157,1.158A1.157,1.157,0,0,1,363.964,8.135Zm6.93,0a1.158,1.158,0,1,1-1.147,1.158A1.153,1.153,0,0,1,370.894,8.135Zm6.949,0a1.158,1.158,0,1,1-1.157,1.158A1.157,1.157,0,0,1,377.843,8.135Zm-34.7,6.547a1.158,1.158,0,1,1-1.156,1.158A1.157,1.157,0,0,1,343.145,14.682Zm6.949,0a1.158,1.158,0,1,1-1.148,1.158A1.152,1.152,0,0,1,350.094,14.682Zm6.93,0a1.158,1.158,0,1,1-1.156,1.158A1.157,1.157,0,0,1,357.024,14.682Zm6.94,0a1.158,1.158,0,1,1-1.157,1.158A1.157,1.157,0,0,1,363.964,14.682Zm6.93,0a1.158,1.158,0,1,1-1.147,1.158A1.153,1.153,0,0,1,370.894,14.682Zm6.949,0a1.158,1.158,0,1,1-1.157,1.158A1.157,1.157,0,0,1,377.843,14.682Z" transform="translate(-342)"/>
</svg>
