<svg xmlns="http://www.w3.org/2000/svg" width="88" height="29" viewBox="0 0 88 29">
  <metadata><?xpacket begin="﻿" id="W5M0MpCehiHzreSzNTczkc9d"?>
<x:xmpmeta xmlns:x="adobe:ns:meta/" x:xmptk="Adobe XMP Core 5.6-c138 79.159824, 2016/09/14-01:09:01        ">
   <rdf:RDF xmlns:rdf="http://www.w3.org/1999/02/22-rdf-syntax-ns#">
      <rdf:Description rdf:about=""/>
   </rdf:RDF>
</x:xmpmeta>
                                                                                                    
                                                                                                    
                                                                                                    
                                                                                                    
                                                                                                    
                                                                                                    
                                                                                                    
                                                                                                    
                                                                                                    
                                                                                                    
                                                                                                    
                                                                                                    
                                                                                                    
                                                                                                    
                                                                                                    
                                                                                                    
                                                                                                    
                                                                                                    
                                                                                                    
                                                                                                    
                           
<?xpacket end="w"?></metadata>
<defs>
    <style>
      .cls-1 {
        fill: #fff;
        fill-rule: evenodd;
      }
    </style>
  </defs>
  <path id="_2" data-name="2" class="cls-1" d="M115.136,68.5c-7.665,5.642-14.2,5.642-21.871,0-5-3.679-9.267-3.679-14.264,0-7.595,5.587-13.788,5.587-21.381,0-5.055-3.721-8.469-3.721-13.527,0l-2.085-2.729c6.146-4.521,11.31-4.7,17.7,0,6.023,4.433,10.469,4.959,17.209,0,6.39-4.7,12.33-4.492,18.436,0,6.268,4.614,11.186,4.794,17.7,0,6.393-4.7,10.572-4.7,16.962,0L127.926,68.5C122.789,64.715,120.277,64.715,115.136,68.5Zm0-9.258c-7.665,5.642-14.2,5.642-21.871,0-5-3.681-9.267-3.681-14.264,0-7.595,5.587-13.788,5.587-21.381,0-5.055-3.721-8.469-3.721-13.527,0L42.007,56.51c6.146-4.523,11.31-4.7,17.7,0,6.023,4.433,10.469,4.959,17.209,0,6.39-4.7,12.33-4.492,18.436,0,6.268,4.614,11.186,4.794,17.7,0,6.393-4.7,10.572-4.7,16.962,0l-2.087,2.729C122.789,55.456,120.277,55.456,115.136,59.24ZM59.706,75.027c6.023,4.435,10.469,4.959,17.209,0,6.39-4.7,12.33-4.492,18.436,0,6.268,4.616,11.186,4.8,17.7,0,6.393-4.7,10.572-4.7,16.962,0l-2.087,2.729c-5.137-3.781-7.649-3.781-12.79,0-7.665,5.642-14.2,5.644-21.871,0-5-3.678-9.267-3.678-14.264,0-7.595,5.589-13.788,5.589-21.381,0-5.055-3.721-8.469-3.721-13.527,0l-2.085-2.729C48.153,70.506,53.317,70.323,59.706,75.027Z" transform="translate(-42 -53)"/>
</svg>
